# xmcd
#
# Track frame offsets: 
#        150
#        13417
#        25505
#        39320
#        53077
#        66305
#        79492
#        93307
#        106185
#        117020
#
# Disc length: 1722 seconds
#
# Revision: 2
# Processed by: cddbd v1.5.2PL0 Copyright (c) Steve Scherf et al.
# Submitted via: ExactAudioCopy v1.3
#
DISCID=7706b80a
DTITLE=Tanya Tucker - Super Hits
DYEAR=1998
DGENRE=Country
TTITLE0=Delta Dawn
TTITLE1=Love's The Anser
TTITLE2=What's Your Mama's Name
TTITLE3=Blood Red And Goin' Down
TTITLE4=The Jamestown Ferry
TTITLE5=The Man That Turned My Mama On
TTITLE6=I Belive The South Is Gonna Rise Again
TTITLE7=Greener Than The Grass (We Laid On)
TTITLE8=Would You Lay with Me (In a Field of Stone)
TTITLE9=You Are So Beautiful
EXTD=
EXTT0=
EXTT1=
EXTT2=
EXTT3=
EXTT4=
EXTT5=
EXTT6=
EXTT7=
EXTT8=
EXTT9=
PLAYORDER=
